<svg width="64" height="64" viewBox="0 0 64 64" fill="none" xmlns="http://www.w3.org/2000/svg">
<rect width="64" height="64" rx="4" fill="url(#paint0_linear)"/>
<path d="M42.283 27.436C42.283 29.022 41.919 30.478 41.191 31.804C40.463 33.104 39.345 34.157 37.837 34.963C36.329 35.769 34.457 36.172 32.221 36.172H28.087V46H21.418V18.622H32.221C34.405 18.622 36.251 18.999 37.759 19.753C39.267 20.507 40.398 21.547 41.152 22.873C41.906 24.199 42.283 25.72 42.283 27.436ZM31.714 30.868C32.988 30.868 33.937 30.569 34.561 29.971C35.185 29.373 35.497 28.528 35.497 27.436C35.497 26.344 35.185 25.499 34.561 24.901C33.937 24.303 32.988 24.004 31.714 24.004H28.087V30.868H31.714Z" fill="white"/>
<defs>
<linearGradient id="paint0_linear" x1="0" y1="0" x2="64" y2="64" gradientUnits="userSpaceOnUse">
<stop stop-color="#FFCB2B"/>
<stop offset="0.422257" stop-color="#FFCB2B"/>
<stop offset="1" stop-color="#F5820D"/>
</linearGradient>
</defs>
</svg>
