<svg width="152" height="36" viewBox="0 0 152 36" fill="none" xmlns="http://www.w3.org/2000/svg">
<path d="M18.576 12.464C20.24 12.464 21.56 12.968 22.536 13.976C23.528 14.984 24.024 16.384 24.024 18.176V26H19.944V18.728C19.944 17.864 19.712 17.2 19.248 16.736C18.8 16.256 18.176 16.016 17.376 16.016C16.576 16.016 15.944 16.256 15.48 16.736C15.032 17.2 14.808 17.864 14.808 18.728V26H10.728V18.728C10.728 17.864 10.496 17.2 10.032 16.736C9.584 16.256 8.96 16.016 8.16 16.016C7.36 16.016 6.728 16.256 6.264 16.736C5.816 17.2 5.592 17.864 5.592 18.728V26H1.488V12.608H5.592V14.288C6.008 13.728 6.552 13.288 7.224 12.968C7.896 12.632 8.656 12.464 9.504 12.464C10.512 12.464 11.408 12.68 12.192 13.112C12.992 13.544 13.616 14.16 14.064 14.96C14.528 14.224 15.16 13.624 15.96 13.16C16.76 12.696 17.632 12.464 18.576 12.464ZM40.5743 12.608L32.1743 32.36H27.7583L30.8303 25.544L25.3822 12.608H29.9663L33.0623 20.984L36.1343 12.608H40.5743ZM54.8983 14.576C54.8983 15.552 54.6743 16.448 54.2263 17.264C53.7783 18.064 53.0903 18.712 52.1623 19.208C51.2343 19.704 50.0823 19.952 48.7063 19.952H46.1623V26H42.0583V9.152H48.7063C50.0503 9.152 51.1863 9.384 52.1143 9.848C53.0423 10.312 53.7383 10.952 54.2023 11.768C54.6663 12.584 54.8983 13.52 54.8983 14.576ZM48.3943 16.688C49.1783 16.688 49.7623 16.504 50.1463 16.136C50.5303 15.768 50.7223 15.248 50.7223 14.576C50.7223 13.904 50.5303 13.384 50.1463 13.016C49.7623 12.648 49.1783 12.464 48.3943 12.464H46.1623V16.688H48.3943ZM61.1389 14.84C61.6189 14.104 62.2189 13.528 62.9389 13.112C63.6589 12.68 64.4589 12.464 65.3389 12.464V16.808H64.2109C63.1869 16.808 62.4189 17.032 61.9069 17.48C61.3949 17.912 61.1389 18.68 61.1389 19.784V26H57.0349V12.608H61.1389V14.84ZM73.3965 26.192C72.0845 26.192 70.9005 25.912 69.8445 25.352C68.8045 24.792 67.9805 23.992 67.3725 22.952C66.7805 21.912 66.4845 20.696 66.4845 19.304C66.4845 17.928 66.7885 16.72 67.3965 15.68C68.0045 14.624 68.8365 13.816 69.8925 13.256C70.9485 12.696 72.1325 12.416 73.4445 12.416C74.7565 12.416 75.9405 12.696 76.9965 13.256C78.0525 13.816 78.8845 14.624 79.4925 15.68C80.1005 16.72 80.4045 17.928 80.4045 19.304C80.4045 20.68 80.0925 21.896 79.4685 22.952C78.8605 23.992 78.0205 24.792 76.9485 25.352C75.8925 25.912 74.7085 26.192 73.3965 26.192ZM73.3965 22.64C74.1805 22.64 74.8445 22.352 75.3885 21.776C75.9485 21.2 76.2285 20.376 76.2285 19.304C76.2285 18.232 75.9565 17.408 75.4125 16.832C74.8845 16.256 74.2285 15.968 73.4445 15.968C72.6445 15.968 71.9805 16.256 71.4525 16.832C70.9245 17.392 70.6605 18.216 70.6605 19.304C70.6605 20.376 70.9165 21.2 71.4285 21.776C71.9565 22.352 72.6125 22.64 73.3965 22.64ZM81.7658 19.28C81.7658 17.904 82.0218 16.696 82.5338 15.656C83.0618 14.616 83.7738 13.816 84.6698 13.256C85.5658 12.696 86.5658 12.416 87.6698 12.416C88.5498 12.416 89.3498 12.6 90.0698 12.968C90.8058 13.336 91.3818 13.832 91.7978 14.456V8.24H95.9018V26H91.7978V24.08C91.4138 24.72 90.8618 25.232 90.1418 25.616C89.4378 26 88.6138 26.192 87.6698 26.192C86.5658 26.192 85.5658 25.912 84.6698 25.352C83.7738 24.776 83.0618 23.968 82.5338 22.928C82.0218 21.872 81.7658 20.656 81.7658 19.28ZM91.7978 19.304C91.7978 18.28 91.5098 17.472 90.9338 16.88C90.3738 16.288 89.6858 15.992 88.8698 15.992C88.0538 15.992 87.3578 16.288 86.7818 16.88C86.2218 17.456 85.9418 18.256 85.9418 19.28C85.9418 20.304 86.2218 21.12 86.7818 21.728C87.3578 22.32 88.0538 22.616 88.8698 22.616C89.6858 22.616 90.3738 22.32 90.9338 21.728C91.5098 21.136 91.7978 20.328 91.7978 19.304ZM112.095 12.608V26H107.991V24.176C107.575 24.768 107.007 25.248 106.287 25.616C105.583 25.968 104.799 26.144 103.935 26.144C102.911 26.144 102.007 25.92 101.223 25.472C100.439 25.008 99.8308 24.344 99.3988 23.48C98.9668 22.616 98.7508 21.6 98.7508 20.432V12.608H102.831V19.88C102.831 20.776 103.063 21.472 103.527 21.968C103.991 22.464 104.615 22.712 105.399 22.712C106.199 22.712 106.831 22.464 107.295 21.968C107.759 21.472 107.991 20.776 107.991 19.88V12.608H112.095ZM114.227 19.304C114.227 17.912 114.507 16.696 115.067 15.656C115.643 14.616 116.435 13.816 117.443 13.256C118.467 12.696 119.635 12.416 120.947 12.416C122.627 12.416 124.027 12.856 125.147 13.736C126.283 14.616 127.027 15.856 127.379 17.456H123.011C122.643 16.432 121.931 15.92 120.875 15.92C120.123 15.92 119.523 16.216 119.075 16.808C118.627 17.384 118.403 18.216 118.403 19.304C118.403 20.392 118.627 21.232 119.075 21.824C119.523 22.4 120.123 22.688 120.875 22.688C121.931 22.688 122.643 22.176 123.011 21.152H127.379C127.027 22.72 126.283 23.952 125.147 24.848C124.011 25.744 122.611 26.192 120.947 26.192C119.635 26.192 118.467 25.912 117.443 25.352C116.435 24.792 115.643 23.992 115.067 22.952C114.507 21.912 114.227 20.696 114.227 19.304ZM137.038 22.52V26H134.95C133.462 26 132.302 25.64 131.47 24.92C130.638 24.184 130.222 22.992 130.222 21.344V16.016H128.59V12.608H130.222V9.344H134.326V12.608H137.014V16.016H134.326V21.392C134.326 21.792 134.422 22.08 134.614 22.256C134.806 22.432 135.126 22.52 135.574 22.52H137.038ZM144.772 26.192C143.604 26.192 142.564 25.992 141.652 25.592C140.74 25.192 140.02 24.648 139.492 23.96C138.964 23.256 138.668 22.472 138.604 21.608H142.66C142.708 22.072 142.924 22.448 143.308 22.736C143.692 23.024 144.164 23.168 144.724 23.168C145.236 23.168 145.628 23.072 145.9 22.88C146.188 22.672 146.332 22.408 146.332 22.088C146.332 21.704 146.132 21.424 145.732 21.248C145.332 21.056 144.684 20.848 143.788 20.624C142.828 20.4 142.028 20.168 141.388 19.928C140.748 19.672 140.196 19.28 139.732 18.752C139.268 18.208 139.036 17.48 139.036 16.568C139.036 15.8 139.244 15.104 139.66 14.48C140.092 13.84 140.716 13.336 141.532 12.968C142.364 12.6 143.348 12.416 144.484 12.416C146.164 12.416 147.484 12.832 148.444 13.664C149.42 14.496 149.98 15.6 150.124 16.976H146.332C146.268 16.512 146.06 16.144 145.708 15.872C145.372 15.6 144.924 15.464 144.364 15.464C143.884 15.464 143.516 15.56 143.26 15.752C143.004 15.928 142.876 16.176 142.876 16.496C142.876 16.88 143.076 17.168 143.476 17.36C143.892 17.552 144.532 17.744 145.396 17.936C146.388 18.192 147.196 18.448 147.82 18.704C148.444 18.944 148.988 19.344 149.452 19.904C149.932 20.448 150.18 21.184 150.196 22.112C150.196 22.896 149.972 23.6 149.524 24.224C149.092 24.832 148.46 25.312 147.628 25.664C146.812 26.016 145.86 26.192 144.772 26.192Z" fill="url(#paint0_linear)"/>
<defs>
<linearGradient id="paint0_linear" x1="-15.0064" y1="4.49998" x2="173.031" y2="29.3675" gradientUnits="userSpaceOnUse">
<stop offset="0.242505" stop-color="#FFA611"/>
<stop offset="0.586303" stop-color="#F5820D"/>
<stop offset="1" stop-color="#FFCB2B"/>
</linearGradient>
</defs>
</svg>
